<?xml version="1.0" encoding="UTF-8"?>
<!-- Generator: Adobe Illustrator 27.5.0, SVG Export Plug-In . SVG Version: 6.00 Build 0)  -->
<svg version="1.1" xmlns="http://www.w3.org/2000/svg" xmlns:xlink="http://www.w3.org/1999/xlink" x="0px" y="0px" viewBox="0 0 1000 1000" style="enable-background:new 0 0 1000 1000;" xml:space="preserve">
<style type="text/css">
	.st0{fill:#242D66;}
	.st1{fill:url(#SVGID_1_);}
	.st2{fill:#F7941D;}
	.st3{fill:url(#SVGID_00000022554880243320557870000010822108089852565932_);}
	.st4{fill:#E93A94;}
	.st5{fill:url(#SVGID_00000173852644377184939320000013905438164590161815_);}
	.st6{fill:#FFAB5C;}
	.st7{fill:#FFFFFF;}
	.st8{fill:#5662CA;}
	.st9{clip-path:url(#SVGID_00000022554294364942253690000014527711103972076689_);fill:#5564C8;}
	.st10{clip-path:url(#SVGID_00000022554294364942253690000014527711103972076689_);}
	.st11{fill:#A5B8FB;}
	.st12{clip-path:url(#SVGID_00000141422516267007134660000007172597108612604835_);fill:#A5B8FB;}
	.st13{clip-path:url(#SVGID_00000141422516267007134660000007172597108612604835_);}
	.st14{fill:#8190C4;}
	.st15{fill:#A8A8A8;}
	.st16{fill:#61439E;}
	.st17{fill:#F1F2F2;}
	.st18{fill:#C93280;}
	.st19{fill:#7A54C7;}
	.st20{fill:#C8BEF7;}
	.st21{fill:none;stroke:#FFFFFF;stroke-width:4;stroke-miterlimit:10;}
	.st22{fill:#231F20;}
	.st23{opacity:0.34;fill:#FFFFFF;}
	.st24{fill:#FFCABD;}
	.st25{fill:#F79999;}
	.st26{clip-path:url(#SVGID_00000150823820056186442560000004348011040801804464_);fill:#FFFFFF;}
	.st27{clip-path:url(#SVGID_00000150823820056186442560000004348011040801804464_);}
	.st28{fill:none;stroke:#A7A9AC;stroke-linecap:round;stroke-miterlimit:10;}
	.st29{fill:none;stroke:#E93A94;stroke-width:2;stroke-miterlimit:10;}
	.st30{fill:#6747A8;}
	.st31{fill:none;stroke:#7A54C7;stroke-width:2;stroke-linecap:round;stroke-miterlimit:10;}
</style>
<g id="bg">
	
		<rect x="0" y="0" transform="matrix(-1.836970e-16 1 -1 -1.836970e-16 1000 -6.734524e-08)" class="st0" width="1000" height="1000"/>
	<linearGradient id="SVGID_1_" gradientUnits="userSpaceOnUse" x1="500" y1="671.9256" x2="500" y2="1000">
		<stop offset="0" style="stop-color:#FFE8BA"/>
		<stop offset="0.17" style="stop-color:#FCD0B5"/>
		<stop offset="0.5292" style="stop-color:#F493A7"/>
		<stop offset="1" style="stop-color:#E93A94"/>
	</linearGradient>
	<path class="st1" d="M1000,818.57c0,0-212.95-145.91-485.19-146.64C242.57,671.2,0,818.57,0,818.57V1000h1000V818.57z"/>
	<path class="st2" d="M1000,818.57c0,0-286.05-43.55-489.34,181.43h-25.32c0,0,44.03-23.58,79.25-68.34   c35.21-44.76,49.26-89.04,123.8-95.7s109.27-5.26,121.98-20.79c12.71-15.52,41.41-11.29,59.81-4.51   C888.57,817.44,945.68,797.67,1000,818.57z"/>
	<path class="st2" d="M779.97,716.02c-223.72,9.93-462.02,43.01-619.01,283.98h-37.27c0,0,69.1-39.13,93.84-83.17   c24.75-44.05,48.75-98.07,115.47-112.27c66.72-14.2,114.19-47.71,152.35-55.25c38.15-7.54,89.74-12.72,111.95-33.28   C619.5,695.46,779.97,716.02,779.97,716.02z"/>
	
		<linearGradient id="SVGID_00000106145704270988036090000008343369762345960840_" gradientUnits="userSpaceOnUse" x1="732.1702" y1="418.6786" x2="732.1702" y2="613.8425">
		<stop offset="0" style="stop-color:#B8A887"/>
		<stop offset="0.2806" style="stop-color:#ABA49F"/>
		<stop offset="0.8697" style="stop-color:#8899DC"/>
		<stop offset="1" style="stop-color:#8097EA"/>
		<stop offset="1" style="stop-color:#CCED80"/>
	</linearGradient>
	<path style="fill:url(#SVGID_00000106145704270988036090000008343369762345960840_);" d="M1000,613.84   c-128.16-54.59-300.24-101.1-459.19-83.7s-35.08-150.38,56.48-103S697.79,528.46,760.38,500c62.59-28.46,99.85-38.61,156.47,16.39   c56.63,55,31.29,70.37,83.15,74.77V613.84z"/>
	<circle class="st4" cx="203.38" cy="226.86" r="64.95"/>
	
		<linearGradient id="SVGID_00000103240341879196691280000003015571588164489110_" gradientUnits="userSpaceOnUse" x1="225.7886" y1="234.0132" x2="225.7886" y2="436.6254">
		<stop offset="0" style="stop-color:#B8A887"/>
		<stop offset="0.2806" style="stop-color:#ABA49F"/>
		<stop offset="0.8697" style="stop-color:#8899DC"/>
		<stop offset="1" style="stop-color:#8097EA"/>
		<stop offset="1" style="stop-color:#CCED80"/>
	</linearGradient>
	<path style="fill:url(#SVGID_00000103240341879196691280000003015571588164489110_);" d="M0,436.63c0,0,90.96-127.72,427.16-154.83   c31.51,0,38.5-29.23-15.32-22.21c-53.82,7.02-87.45,23.42-126.52-10.86s-55.63-3.3-111.43,37.84S83.45,230.63,0,305.14L0,436.63z"/>
	<circle class="st6" cx="773.1" cy="140.92" r="4.57"/>
	<circle class="st7" cx="835.22" cy="203.04" r="7.89"/>
	<circle class="st7" cx="342.46" cy="371.93" r="4.57"/>
	<circle class="st7" cx="874.75" cy="620.69" r="4.57"/>
	<circle class="st8" cx="797.5" cy="655.6" r="3.23"/>
	<circle class="st8" cx="101.94" cy="582.96" r="3.23"/>
	<circle class="st6" cx="505.78" cy="91.23" r="2.53"/>
	<circle class="st8" cx="118.04" cy="82.09" r="9.14"/>
	<circle class="st6" cx="71.74" cy="558.7" r="12.78"/>
	<path class="st2" d="M235.98,717.92C51.41,810.66,0,984.59,0,984.59l0.97-33.88c0,0,51.02-87.21,66.19-114.75   C89.81,794.85,235.98,717.92,235.98,717.92z"/>
	<path class="st6" d="M154.72,269.88c-55.08,24.47-96.77,29.15-95.26,18.95c1.51-10.2,44.41-43.17,133.23-85.79   s147.99-46.85,149.77-32.05c1.79,14.8-74.13,49.51-74.13,49.51l-0.86-4.19c0,0,52.33-29.33,51.68-37.15s-74.53,13.34-120.09,37.1   s-114.6,56.9-111.14,65.97c3.46,9.06,65.1-14.36,65.1-14.36L154.72,269.88z"/>
	<g>
		<defs>
			<circle id="SVGID_00000125571167229850763790000004275449928676536992_" cx="862.53" cy="325.78" r="50.72"/>
		</defs>
		<clipPath id="SVGID_00000093864003532686250650000012299556584736557502_">
			<use xlink:href="#SVGID_00000125571167229850763790000004275449928676536992_" style="overflow:visible;"/>
		</clipPath>
		
			<circle style="clip-path:url(#SVGID_00000093864003532686250650000012299556584736557502_);fill:#5564C8;" cx="862.53" cy="325.78" r="50.72"/>
		<g style="clip-path:url(#SVGID_00000093864003532686250650000012299556584736557502_);">
			<g>
				<path class="st11" d="M926.22,335.94c-12.44,3.82-26.12,3.08-38.1-1.99c-2.9-1.23-5.71-2.72-8.34-4.44      c-2.47-1.61-5.07-3.68-6.23-6.49c-0.96-2.32-0.54-4.72,1.49-6.29c1.97-1.52,4.48-1.41,5.26,1.26      c1.51,5.18-1.52,11.21-5.11,14.78c-3.87,3.85-9.45,6.16-14.93,5.26c-5.31-0.87-9.87-3.96-14.16-7.03      c-4.35-3.11-8.63-6.43-13.68-8.34c-6.85-2.59-14.09-1.21-20.57,1.8c-6.42,2.98-11.92,7.65-16.07,13.36      c-0.95,1.3,1.22,2.55,2.16,1.26c4.05-5.58,9.59-10.03,15.9-12.8c3.55-1.56,7.43-2.63,11.33-2.55c3.05,0.06,6.01,0.93,8.73,2.27      c9.93,4.89,18.53,15.98,30.68,14.59c5.93-0.68,11.24-4.06,14.73-8.84c1.72-2.36,2.98-5.14,3.48-8.03      c0.5-2.83,0.65-6.46-1.32-8.8c-3.62-4.29-10.2,0.02-10.89,4.58c-0.98,6.55,6.06,11.23,10.93,13.97      c12.15,6.82,26.77,9.02,40.4,6.17c1.68-0.35,3.34-0.79,4.98-1.29C928.42,337.88,927.77,335.46,926.22,335.94L926.22,335.94z"/>
			</g>
		</g>
		<g style="clip-path:url(#SVGID_00000093864003532686250650000012299556584736557502_);">
			<g>
				<path class="st11" d="M914.87,293.07c-6.05,4.38-13.72,1.14-19.8-1.39c-3.45-1.44-6.91-2.7-10.63-3.19      c-3.47-0.46-6.99-0.32-10.42,0.35c-3.35,0.66-6.61,1.87-9.56,3.58c-3.33,1.92-6.2,4.53-9.58,6.36      c-6.09,3.3-13.57,3.75-20.08,1.42c-7.45-2.67-12.57-9.29-19.81-12.37c-1.46-0.62-2.74,1.53-1.26,2.16      c6.61,2.81,11.41,8.5,17.86,11.57c6.3,2.99,13.74,3.43,20.35,1.2c3.58-1.21,6.62-3.25,9.67-5.44c3.14-2.25,6.36-4.19,10.08-5.32      c3.47-1.05,7.1-1.46,10.71-1.22c3.83,0.26,7.43,1.42,10.96,2.87c7.03,2.88,15.77,6.66,22.79,1.58      C917.42,294.29,916.18,292.12,914.87,293.07L914.87,293.07z"/>
			</g>
		</g>
		<g style="clip-path:url(#SVGID_00000093864003532686250650000012299556584736557502_);">
			<g>
				<path class="st11" d="M909.39,364.58c-9.96,2.8-20.81,5.59-30.56,0.59c-7.72-3.96-14.15-10.92-23.09-12.14      c-4.72-0.64-9.95,0.37-13.87,3.17c-3.31,2.36-5.81,6.78-2.79,10.43c1.22,1.47,3.16,2.34,5.04,1.75c1.84-0.57,2.97-2.36,3.21-4.2      c0.57-4.27-3.49-7.76-6.77-9.76c-7.82-4.75-18.56-4.43-25.85,1.2c-1.26,0.97-0.01,3.14,1.26,2.16      c5.67-4.37,13.37-5.28,20.03-2.8c3.17,1.18,6.9,3.45,8.42,6.6c0.65,1.36,0.75,3.75-0.98,4.39c-1.66,0.62-3.17-1.4-3.26-2.87      c-0.26-4.05,5.38-6.44,8.5-7.22c4.11-1.03,8.37-0.48,12.22,1.24c6.88,3.07,12.33,8.61,19.35,11.44      c9.65,3.9,20.24,1.13,29.81-1.56C911.6,366.56,910.94,364.14,909.39,364.58L909.39,364.58z"/>
			</g>
		</g>
	</g>
	<g>
		<defs>
			<circle id="SVGID_00000165219770392681266600000009024315695828699808_" cx="772.62" cy="395.62" r="31.88"/>
		</defs>
		<clipPath id="SVGID_00000132787688102727884440000016857633050015518099_">
			<use xlink:href="#SVGID_00000165219770392681266600000009024315695828699808_" style="overflow:visible;"/>
		</clipPath>
		
			<circle style="clip-path:url(#SVGID_00000132787688102727884440000016857633050015518099_);fill:#A5B8FB;" cx="772.62" cy="395.62" r="31.88"/>
		<g style="clip-path:url(#SVGID_00000132787688102727884440000016857633050015518099_);">
			<g>
				<path class="st14" d="M808.3,408.84c-11.99,4.46-26.71-1.19-32.54-12.63c-0.58-1.15-1.9-3.92,0.31-4.1      c1.47-0.12,2.69,1.02,3.31,2.24c1.53,3.04-0.11,6.17-2.86,7.76c-3.59,2.09-7.87,1.6-11.77,0.86c-4.31-0.82-8.59-1.73-13-1.63      c-8.05,0.18-16.86,4.23-18.9,12.7c-0.38,1.56,2.03,2.23,2.41,0.66c0.96-3.98,3.89-7.01,7.47-8.83      c4.31-2.19,9.36-2.31,14.07-1.77c4.96,0.57,9.89,2.37,14.93,1.97c3.72-0.29,7.6-1.9,9.62-5.2c1.78-2.9,1.39-6.86-0.93-9.37      c-2.24-2.41-7.52-2.87-8.05,1.3c-0.24,1.91,0.72,3.79,1.62,5.41c0.86,1.55,1.89,3,3.03,4.34c2.33,2.74,5.23,5.01,8.4,6.7      c7.15,3.82,15.86,4.85,23.53,1.99C810.46,410.7,809.81,408.28,808.3,408.84L808.3,408.84z"/>
			</g>
		</g>
		<g style="clip-path:url(#SVGID_00000132787688102727884440000016857633050015518099_);">
			<g>
				<path class="st14" d="M738.49,386.83c6.42-6.63,16.96-3.25,24.94-3.07c4.22,0.1,8.83-0.5,12.15-3.33c2.83-2.41,2.94-5.93,1.06-9      c-1.2-1.96-3.37-3.58-5.76-3.45c-2.09,0.12-3.59,1.78-3.09,3.89c0.62,2.63,3.32,5.22,5.92,5.83c1.34,0.31,2.73,0.25,4.09,0.21      c1.93-0.07,3.84,0.01,5.77,0.13c5.27,0.31,10.85,0.76,15.56,3.37c3.81,2.11,7.17,5.71,7.65,10.21c0.17,1.58,2.67,1.6,2.5,0      c-0.8-7.51-7.28-12.55-14.16-14.48c-4.2-1.18-8.59-1.43-12.92-1.68c-1.66-0.09-3.31-0.08-4.97-0.03      c-1.1,0.03-2.25,0.09-3.32-0.26c-1.33-0.43-2.31-1.52-3.07-2.65c-0.27-0.4-0.57-0.83-0.66-1.31c-0.05-0.26-0.06-0.3,0.06-0.47      c0.01-0.01,0.16-0.13,0.23-0.16c0.35-0.14,0.65-0.14,1.04-0.08c0.82,0.12,1.59,0.62,2.16,1.19c0.91,0.91,1.48,2.17,1.72,3.43      c0.31,1.66-0.74,2.95-2.04,3.87c-3.44,2.44-8.04,2.45-12.08,2.16c-8.2-0.58-18.11-2.78-24.58,3.91      C735.61,386.22,737.37,387.99,738.49,386.83L738.49,386.83z"/>
			</g>
		</g>
		<g style="clip-path:url(#SVGID_00000132787688102727884440000016857633050015518099_);">
			<g>
				<path class="st14" d="M792.37,424.3c-4.71-5.01-11.3-7.55-18.04-8.21c-7.69-0.74-15.33,1.19-22.43,4.03      c-4.36,1.74-8.58,3.81-12.78,5.88c-1.44,0.71-0.18,2.87,1.26,2.16c12.6-6.21,26.98-13.03,41.17-7.96      c3.44,1.23,6.55,3.2,9.05,5.87C791.71,427.24,793.47,425.47,792.37,424.3L792.37,424.3z"/>
			</g>
		</g>
	</g>
</g>
<g id="character">
	<g>
		<g>
			<path class="st15" d="M223.15,671.91c4.76-6.7-6.3-22.4-15.36-12.01c-9.06,10.39,4.19,16.03,4.19,16.03     S218.21,678.87,223.15,671.91z"/>
			<g>
				<path class="st16" d="M208.6,684.65c-1.38,0-2.78-0.38-4.03-1.18c-3.49-2.23-4.51-6.87-2.28-10.36l22.9-35.85      c2.23-3.49,6.87-4.51,10.36-2.28c3.49,2.23,4.51,6.87,2.28,10.36l-22.9,35.85C213.49,683.43,211.07,684.65,208.6,684.65z"/>
			</g>
			<path class="st4" d="M199.33,673.29c0,0-1.99,1.71-2.58,3.87c-0.59,2.16-2.3,11.25,2.96,21.52c5.26,10.28,13.1,4.14,13.91,0.04     c0.54-2.71-0.54-19.75-0.54-19.75L199.33,673.29z"/>
			<path class="st17" d="M207.8,659.91c0,0-7.57,10.53-8.97,14.36c-2.2,6.05-0.58,17.16,2.26,23.04s6.98,6.69,10.49,4.49     c3.58-2.25,4.47-16.37,4.47-16.37l7.11-13.52C213.89,677.28,206.81,670.59,207.8,659.91z"/>
			<g>
				<path class="st4" d="M213.73,686.84c-3.83,0-7.13-2.03-9.25-5.85c-0.94-1.69-0.33-3.82,1.36-4.76c1.69-0.94,3.82-0.33,4.76,1.36      c0.88,1.59,2.11,2.92,5.03,1.87c1.82-0.65,3.82,0.29,4.48,2.11c0.66,1.82-0.29,3.82-2.11,4.48      C216.54,686.58,215.1,686.84,213.73,686.84z"/>
			</g>
		</g>
		<path class="st15" d="M181.86,673.57c6.75-4.69,1.66-23.21-10.38-16.5c-12.05,6.71-1.49,16.5-1.49,16.5    S174.85,678.45,181.86,673.57z"/>
		<g>
			<path class="st16" d="M295.14,719.54c-2.95,0-5.75-1.75-6.94-4.65l-17.75-43.16c-1.58-3.83,0.25-8.21,4.08-9.79     c3.83-1.57,8.21,0.25,9.79,4.08l17.75,43.16c1.58,3.83-0.25,8.21-4.08,9.79C297.05,719.36,296.09,719.54,295.14,719.54z"/>
		</g>
		<g>
			<path class="st17" d="M281.95,707.35c0,0,6.79,13.28,9.13,18.48s6.96,7.75,14.49,5.48s8.13-10.51,5.48-15.87     s-8.84-19.59-8.84-19.59s-4.48-5.24-12.44-1.81S281.95,707.35,281.95,707.35z"/>
			<g>
				<path class="st4" d="M291.17,706.89c-0.86,0-1.73-0.32-2.4-0.96c-1.4-1.33-1.47-3.54-0.14-4.95c2.51-2.66,11.33-6.95,16.99-3.18      c1.61,1.07,2.05,3.24,0.98,4.85c-1.07,1.61-3.24,2.05-4.85,0.98c-1.72-1.14-6.77,0.83-8.04,2.16      C293.03,706.52,292.1,706.89,291.17,706.89z"/>
			</g>
			<path class="st17" d="M315.29,695.86c-4.79,0.11-11.81,2.02-16.1,7.37c-4.28,5.34-7.61,13.95-6.98,24.64l16.76-11.34     L315.29,695.86z"/>
			<path class="st4" d="M298.43,733.67c-2.24-1.6-3.67-1.96-5.66-5.29c0,0,1.53-29.68,22.52-32.53c5-0.3,5.57,7.13,5.37,10.9     L298.43,733.67z"/>
			<path class="st18" d="M303.67,733.74c10.22-3.09,15.68-20.05,16.79-25.53c1.11-5.48,0.48-8.73-3.67-9.27     c-5.95-0.77-12.88,3.37-18.17,16.5C293.33,728.56,295.38,736.24,303.67,733.74z"/>
		</g>
		<g>
			<path class="st19" d="M205.57,618.84c-0.17,0-0.34-0.01-0.51-0.03c-13.14-1.34-16.81-14.88-20.36-27.97     c-4.73-17.46-9.63-35.52-33.98-35.52c-2.76,0-5-2.24-5-5s2.24-5,5-5c32,0,38.72,24.8,43.63,42.9     c3.36,12.4,5.73,20.03,11.72,20.64c2.75,0.28,4.75,2.73,4.47,5.48C210.28,616.92,208.11,618.84,205.57,618.84z"/>
		</g>
		<path class="st17" d="M205.4,656.19l42.27,22.07c14.13,7.38,31.57,1.9,38.95-12.23l0,0c7.38-14.13,1.9-31.57-12.23-38.95    l-42.27-22.07c-14.13-7.38-31.57-1.9-38.95,12.23l0,0C185.79,631.37,191.27,648.81,205.4,656.19z"/>
		<g>
			<path class="st19" d="M250.18,721.11c-3.82,0-7.08-2.9-7.46-6.77l-4.52-46.45c-0.4-4.12,2.62-7.79,6.74-8.19     c4.12-0.41,7.79,2.62,8.19,6.74l4.52,46.45c0.4,4.12-2.62,7.79-6.74,8.19C250.67,721.1,250.42,721.11,250.18,721.11z"/>
		</g>
		<g>
			<path class="st4" d="M213.61,660.48c-8.54-12.89-0.97-48.5,30.8-49.05l13.82,7.22c-34.87,0.36-38.63,35.4-31.82,48.51     L213.61,660.48z"/>
		</g>
		<path class="st19" d="M247.67,678.26c10.14-2.41,15.06-12.23,15.88-20.12c0.73-6.97,3.39-12.83,9.76-12.68    c6.38,0.15,8.46,7.12,7.64,12.31c-1.59,10.04-11.47,24.25-21.05,23.86C259.9,681.62,254.06,681.63,247.67,678.26z"/>
		
			<ellipse transform="matrix(0.1324 -0.9912 0.9912 0.1324 -412.4661 839.3014)" class="st4" cx="273.18" cy="655.26" rx="5.97" ry="5.08"/>
		<g>
			<path class="st17" d="M238.92,705.31c0,0,2.66,14.67,3.4,20.33c0.74,5.65,4.43,9.43,12.29,9.43s10.82-7.71,9.83-13.61     c-0.98-5.9-2.8-21.31-2.8-21.31s-2.78-6.31-11.38-5.33C241.66,695.8,238.92,705.31,238.92,705.31z"/>
			<g>
				<path class="st4" d="M261.65,708.74c-1.01,0-2.01-0.43-2.7-1.27c-1.31-1.58-6.72-1.17-8.32-0.25c-1.68,0.96-3.82,0.38-4.78-1.3      c-0.96-1.68-0.38-3.82,1.3-4.78c1.85-1.06,4.95-1.75,7.91-1.75c0.02,0,0.04,0,0.06,0c4.09,0.01,7.28,1.26,9.22,3.61      c1.23,1.49,1.02,3.7-0.47,4.93C263.23,708.47,262.44,708.74,261.65,708.74z"/>
			</g>
			<path class="st17" d="M274.16,703.94c-4.62-1.28-11.89-1.48-17.54,2.4c-5.65,3.88-11.31,11.16-13.81,21.57l19.32-6.01     L274.16,703.94z"/>
			<path class="st4" d="M247.09,735.27c-1.68-2.17-2.95-2.94-3.89-6.7c0,0,10.05-27.97,30.96-24.63c4.88,1.15,3.27,8.44,1.99,11.98     L247.09,735.27z"/>
			<path class="st18" d="M252.09,736.84c10.68,0,20.81-14.66,23.46-19.59c2.65-4.93,2.99-8.22-0.84-9.93     c-5.47-2.46-13.31-0.5-22.16,10.54C243.69,728.9,243.43,736.84,252.09,736.84z"/>
		</g>
		<g>
			<path class="st4" d="M226.19,556.29l-3.85-27.65c-0.67-4.78,4.12-8.46,8.57-6.6l24.93,10.46L226.19,556.29z"/>
			<path class="st4" d="M324.56,556.29l3.85-27.65c0.67-4.78-4.12-8.46-8.57-6.6l-24.93,10.46L324.56,556.29z"/>
			<circle class="st19" cx="275.38" cy="584.34" r="56.62"/>
			<ellipse class="st20" cx="283.14" cy="580.7" rx="41.94" ry="45.48"/>
			<ellipse class="st21" cx="283.14" cy="580.7" rx="41.94" ry="45.48"/>
			<g>
				<path class="st22" d="M278.46,572.98c-0.1-5.87-7.45-8.97-11.64-4.82c-1.28,1.27-2.1,2.91-2.56,4.83      c-0.06,0.25-0.31,0.4-0.56,0.34c-0.18-0.04-0.31-0.18-0.35-0.35c-0.47-2.19,0.4-4.62,2.03-6.25c3.25-3.49,9.28-3.55,12.57-0.07      c1.66,1.65,2.58,4.01,2.51,6.32c-0.02,0.55-0.48,0.99-1.03,0.97C278.9,573.93,278.48,573.51,278.46,572.98L278.46,572.98z"/>
			</g>
			<g>
				<g>
					<path class="st22" d="M288.59,585.86c0.24,4.77-4.05,9.08-8.83,8.93c-4.58,0.07-9.27-4.23-8.28-8.93       c0.05-0.25,0.3-0.41,0.55-0.36c0.18,0.04,0.32,0.18,0.36,0.36c0.46,1.92,1.28,3.55,2.56,4.82c2.56,2.57,7.05,2.51,9.57-0.07       c1.26-1.24,2.02-2.96,2.08-4.75C286.64,584.59,288.53,584.59,288.59,585.86L288.59,585.86z"/>
				</g>
				<g>
					<path class="st22" d="M288.59,585.86c0.1,5.87,7.45,8.97,11.64,4.82c1.28-1.27,2.1-2.91,2.56-4.83       c0.06-0.25,0.31-0.4,0.56-0.34c0.18,0.04,0.31,0.18,0.35,0.35c0.47,2.19-0.4,4.62-2.03,6.25c-3.25,3.49-9.28,3.55-12.57,0.07       c-1.66-1.65-2.58-4.01-2.51-6.32c0.02-0.55,0.48-0.99,1.03-0.97C288.15,584.91,288.57,585.34,288.59,585.86L288.59,585.86z"/>
				</g>
			</g>
			<path class="st22" d="M271.89,572.98l3.54,1.23c-0.51,1.47-1.9,2.52-3.54,2.52c-2.07,0-3.75-1.68-3.75-3.75     c0-2.07,1.68-3.75,3.75-3.75c1.64,0,3.03,1.06,3.54,2.52L271.89,572.98z"/>
			<g>
				<path class="st22" d="M294.83,572.98c-0.24-4.77,4.05-9.08,8.83-8.93c4.58-0.07,9.27,4.23,8.28,8.93      c-0.05,0.25-0.3,0.41-0.55,0.36c-0.18-0.04-0.32-0.18-0.36-0.36c-0.46-1.92-1.28-3.55-2.56-4.82c-2.56-2.57-7.05-2.51-9.57,0.07      c-1.26,1.24-2.02,2.96-2.08,4.75C296.77,574.26,294.88,574.25,294.83,572.98L294.83,572.98z"/>
			</g>
			<path class="st22" d="M303.6,572.98l3.54-1.23c-0.51-1.47-1.9-2.52-3.54-2.52c-2.07,0-3.75,1.68-3.75,3.75     c0,2.07,1.68,3.75,3.75,3.75c1.64,0,3.03-1.06,3.54-2.52L303.6,572.98z"/>
			<path class="st19" d="M287.64,576.36h-5.54c-1.41,0-2.18,1.65-1.27,2.72l5.54,6.6c0.66,0.79,1.88,0.79,2.54,0l5.54-6.6     c0.91-1.08,0.14-2.72-1.27-2.72H287.64z"/>
			<g>
				<path class="st22" d="M314.12,580.19l8.39-0.15c0.61-0.01,0.69,0.9,0.09,1c0,0-8.28,1.41-8.28,1.41      C312.74,582.67,312.52,580.26,314.12,580.19L314.12,580.19z"/>
			</g>
			<g>
				<path class="st22" d="M315.15,585.27l7.49,1.8c0.59,0.14,0.45,1.04-0.15,0.99l-7.68-0.55      C313.2,587.35,313.57,584.94,315.15,585.27L315.15,585.27z"/>
			</g>
			<g>
				<path class="st22" d="M313.21,590.1l6.59,5.75c0.46,0.39-0.1,1.14-0.6,0.8c0,0-7.35-4.74-7.35-4.74      C310.53,591.01,311.98,589.08,313.21,590.1L313.21,590.1z"/>
			</g>
			<g>
				<path class="st22" d="M260.84,582.45l-15.19-2.05c-0.62-0.08-0.54-1.03,0.09-1c0,0,15.31,0.79,15.31,0.79      C262.59,580.3,262.39,582.62,260.84,582.45L260.84,582.45z"/>
			</g>
			<g>
				<path class="st22" d="M260.4,587.5l-13.01,1.73c-0.62,0.08-0.79-0.84-0.18-0.98l12.78-2.98      C261.52,584.96,261.94,587.26,260.4,587.5L260.4,587.5z"/>
			</g>
			<g>
				<path class="st22" d="M263.32,591.91l-7.35,4.74c-0.5,0.34-1.07-0.41-0.6-0.8c0,0,6.59-5.75,6.59-5.75      C263.19,589.08,264.64,591,263.32,591.91L263.32,591.91z"/>
			</g>
			<path class="st23" d="M325.08,580.7c0-24.49-17.85-44.44-40.21-45.43c-9.96,26.53,15.47,61.63-0.39,90.87     C305.57,626.14,325.08,605.32,325.08,580.7z"/>
		</g>
		<g>
			<path class="st19" d="M166.4,681.07c-2.25,0-4.47-1-5.95-2.92c-2.53-3.28-1.92-7.99,1.36-10.52l33.69-25.98     c3.28-2.53,7.99-1.92,10.52,1.36c2.53,3.28,1.92,7.99-1.36,10.52l-33.69,25.98C169.61,680.56,168,681.07,166.4,681.07z"/>
		</g>
		<path class="st4" d="M158.98,666.79c0,0-2.46,0.94-3.74,2.77c-1.28,1.83-5.97,9.8-4.51,21.25c1.47,11.45,10.92,8.34,13.08,4.75    c1.42-2.37,6.18-18.77,6.18-18.77L158.98,666.79z"/>
		<path class="st17" d="M171.48,657.07c0,0-10.69,7.34-13.31,10.47c-4.12,4.95-6.35,15.95-5.68,22.44c0.68,6.5,4.3,8.66,8.35,7.78    c4.13-0.91,9.75-13.88,9.75-13.88l11.27-10.31C171.32,675.48,166.93,666.79,171.48,657.07z"/>
		<g>
			<path class="st4" d="M172.23,685.13c-5.95,0-10.06-3.49-11.01-9.34c-0.31-1.91,0.99-3.71,2.89-4.02c1.91-0.3,3.71,0.99,4.02,2.89     c0.29,1.8,0.99,3.46,4.1,3.46c1.93,0,3.5,1.57,3.5,3.5S174.16,685.13,172.23,685.13z"/>
		</g>
	</g>
	<g>
		<path class="st19" d="M368.67,821.22c-11.24,14.3-46.27,6.46-89.43-4.53c-42.87-11.66-83.98-22.16-83.11-40.47    c0.32-18.18,51.82-36.52,105.47-20.77C355.37,771.01,379.78,807.67,368.67,821.22z"/>
	</g>
	<g>
		<path class="st19" d="M720.97,887.15c-19.36,20.28-77.08-2.86-153.78-29.58c-76.06-27.71-149.73-48.18-144.08-76.66    c4.55-28.41,99.75-49.95,190.12-13.63C703.92,803.14,739.92,868.29,720.97,887.15z"/>
	</g>
	<g>
		<g>
			<path class="st17" d="M458.53,401.49l-1.52,19.01c-0.13,1.67-1.24,3.11-2.83,3.66l0,0c-2.49,0.87-5.16-0.72-5.58-3.32l-0.9-5.55     l-12.35,7.26c-5.66,3.33-12.92,1.93-16.94-3.26l0,0c-4.27-5.51-3.46-13.4,1.83-17.93l8.26-7.06c2.93-2.51,6.3-4.44,9.94-5.71     l11.76-4.11L458.53,401.49z"/>
			<g>
				<path class="st19" d="M480.35,395.56c-4.49,0-8.91-2.1-11.7-6.04c-4.58-6.46-3.05-15.4,3.4-19.98      c44.75-31.72,93.75-39.38,112.93-41.57c9.64-1.1,17.59,7.42,15.79,16.95v0c-1.17,6.16-6.18,10.86-12.41,11.59      c-14.25,1.68-58.98,7.53-99.73,36.42C486.11,394.7,483.21,395.56,480.35,395.56z"/>
			</g>
			<g>
				<path class="st4" d="M467.44,414.07c-4.68,0-9.16-2.64-11.28-7.15l-10.52-22.35c-2.93-6.23-0.26-13.65,5.96-16.58      c6.22-2.93,13.65-0.26,16.58,5.96l10.52,22.35c2.93,6.23,0.26,13.65-5.96,16.58C471.03,413.69,469.22,414.07,467.44,414.07z"/>
			</g>
		</g>
		<path class="st4" d="M366.15,647.41c0,0-4.8,1.83-7.31,5.41c-2.51,3.58-11.67,19.15-8.81,41.53c2.86,22.37,21.34,16.29,25.55,9.28    c2.78-4.63,12.07-36.67,12.07-36.67L366.15,647.41z"/>
		<path class="st19" d="M409.7,624.01c0,0-40.02,18.75-45.12,24.88c-8.05,9.67-12.42,31.16-11.1,43.85s8.41,16.93,16.32,15.19    c8.07-1.77,19.05-27.13,19.05-27.13l36.48-17.85L409.7,624.01z"/>
		<g>
			<path class="st17" d="M653.46,764.06c-15.51,0-28.94-11.57-30.88-27.36l-16.23-132.12l-59.9-145.08     c-6.57-15.9,1-34.12,16.9-40.68c15.9-6.57,34.12,1,40.68,16.9l61.51,148.98c1.07,2.59,1.78,5.31,2.13,8.09l16.74,136.31     c2.1,17.08-10.05,32.62-27.12,34.72C656.01,763.98,654.73,764.06,653.46,764.06z"/>
		</g>
		<circle class="st19" cx="646.83" cy="585.86" r="22.49"/>
		<g>
			<path class="st17" d="M427.2,670.34c-11.83,0-23.14-6.77-28.37-18.24c-7.13-15.66-0.22-34.13,15.43-41.26l55.53-46.07     l9.37-108.89c1.56-17.13,16.72-29.76,33.85-28.19c17.13,1.56,29.76,16.72,28.19,33.85L530.2,588.43     c-1.01,11.14-7.93,20.88-18.11,25.52l-72,53.58C435.91,669.44,431.52,670.34,427.2,670.34z"/>
		</g>
		<circle class="st19" cx="509.11" cy="591.35" r="22.49"/>
		<g>
			<circle class="st4" cx="584.67" cy="220.34" r="18.41"/>
			<path class="st19" d="M599.59,148.01c0-2.95-2.4-5.35-5.35-5.35c-2.95,0-5.35,2.4-5.35,5.35c0,2.29,1.45,4.23,3.48,5v62.24     c0,1.03,0.84,1.87,1.87,1.87c1.03,0,1.87-0.84,1.87-1.87V153C598.14,152.24,599.59,150.3,599.59,148.01z"/>
		</g>
		<circle class="st17" cx="540.44" cy="224.24" r="70.55"/>
		<ellipse class="st24" cx="552.16" cy="216.3" rx="53.14" ry="56.67"/>
		<g>
			<path class="st19" d="M552.16,276.09c-31.02,0-56.25-26.82-56.25-59.78s25.24-59.78,56.25-59.78c31.02,0,56.25,26.82,56.25,59.78     S583.18,276.09,552.16,276.09z M552.16,162.75c-27.58,0-50.02,24.02-50.02,53.55s22.44,53.55,50.02,53.55     c27.58,0,50.02-24.02,50.02-53.55S579.74,162.75,552.16,162.75z"/>
		</g>
		<path class="st17" d="M566.49,312.9h-26.06h-26.06c-44.3,50.78-43.57,104.26-43.57,144.41h69.62h69.62    C610.06,417.16,610.79,363.68,566.49,312.9z"/>
		<g>
			<path class="st4" d="M586.88,337.82H494c-13.76,0-24.92-11.16-24.92-24.92c0-13.76,11.16-24.92,24.92-24.92h92.88     c13.76,0,24.92,11.16,24.92,24.92C611.8,326.66,600.64,337.82,586.88,337.82z"/>
		</g>
		<circle class="st19" cx="565.69" cy="376.95" r="22.49"/>
		<rect x="543.19" y="376.95" class="st19" width="44.99" height="64.06"/>
		<circle class="st4" cx="565.69" cy="376.95" r="14.88"/>
		<g>
			<path class="st4" d="M610.06,465.93H470.81c-13.76,0-24.92-11.16-24.92-24.92c0-13.76,11.16-24.92,24.92-24.92h139.25     c13.76,0,24.92,11.16,24.92,24.92C634.98,454.78,623.82,465.93,610.06,465.93z"/>
		</g>
		<g>
			<g>
				<path class="st22" d="M561.86,196.31c-0.12-5.77,4.98-10.87,10.75-10.75c5.77-0.12,10.87,4.99,10.75,10.75      c0,0-1.44-0.9-1.44-0.9l7.45-3.07c0.23-0.1,0.5,0.01,0.59,0.25c0.09,0.21,0,0.45-0.19,0.57l-6.96,4.05      c-0.46,0.27-1.05,0.11-1.31-0.35c-0.1-0.17-0.14-0.36-0.13-0.55c0.07-7.71-9.54-11.68-14.94-6.19      c-1.63,1.62-2.57,3.89-2.56,6.19C563.85,197.62,561.88,197.63,561.86,196.31L561.86,196.31z"/>
			</g>
			<path class="st22" d="M572.55,196.31l4.41-1.53c-0.63-1.83-2.37-3.15-4.41-3.15c-2.58,0-4.68,2.09-4.68,4.67     c0,2.58,2.09,4.67,4.68,4.67c2.05,0,3.78-1.32,4.41-3.14L572.55,196.31z"/>
			<g>
				<path class="st22" d="M544.99,196.31c-0.44-11.6-17.07-11.59-17.51,0c0.07,0.75-0.81,1.29-1.44,0.9c0,0-6.96-4.05-6.96-4.05      c-0.48-0.27-0.1-1.03,0.4-0.81c0,0,7.45,3.07,7.45,3.07l-1.44,0.9c-0.04-9.5,11.67-14.35,18.36-7.6c2,1.98,3.16,4.79,3.15,7.6      c0,0.55-0.45,1.01-1,1C545.43,197.31,544.99,196.86,544.99,196.31L544.99,196.31z"/>
			</g>
			<path class="st22" d="M536.56,196.31l4.41,1.53c-0.63,1.83-2.37,3.15-4.41,3.15c-2.58,0-4.68-2.09-4.68-4.67s2.09-4.67,4.68-4.67     c2.05,0,3.78,1.32,4.41,3.14L536.56,196.31z"/>
			<circle class="st25" cx="584.67" cy="209.1" r="7"/>
			<circle class="st25" cx="524.18" cy="209.1" r="7"/>
			<g>
				<g>
					<defs>
						<path id="SVGID_00000096744970419476450180000018395178721757145261_" d="M554.43,228.43c15.45,0,28.21-7.29,30.21-16.74        c0.29-1.37-1.25-2.59-3.21-2.59h-54c-1.96,0-3.5,1.22-3.21,2.59C526.21,221.14,538.98,228.43,554.43,228.43z"/>
					</defs>
					<clipPath id="SVGID_00000015343800737560154430000017379582289441977513_">
						<use xlink:href="#SVGID_00000096744970419476450180000018395178721757145261_" style="overflow:visible;"/>
					</clipPath>
					<path style="clip-path:url(#SVGID_00000015343800737560154430000017379582289441977513_);fill:#FFFFFF;" d="M554.43,228.43       c15.45,0,28.21-7.29,30.21-16.74c0.29-1.37-1.25-2.59-3.21-2.59h-54c-1.96,0-3.5,1.22-3.21,2.59       C526.21,221.14,538.98,228.43,554.43,228.43z"/>
					<g style="clip-path:url(#SVGID_00000015343800737560154430000017379582289441977513_);">
						<line class="st28" x1="578.23" y1="207.49" x2="578.23" y2="229.32"/>
						<line class="st28" x1="562.36" y1="207.49" x2="562.36" y2="229.32"/>
						<line class="st28" x1="546.49" y1="207.49" x2="546.49" y2="229.32"/>
						<line class="st28" x1="530.62" y1="207.49" x2="530.62" y2="229.32"/>
					</g>
				</g>
				<path class="st29" d="M554.43,228.43c15.45,0,28.21-7.29,30.21-16.74c0.29-1.37-1.25-2.59-3.21-2.59h-54      c-1.96,0-3.5,1.22-3.21,2.59C526.21,221.14,538.98,228.43,554.43,228.43z"/>
			</g>
		</g>
		<path class="st23" d="M605.74,216.3c0-30.51-24.12-55.38-54.32-56.61c-13.46,33.05,20.9,76.79-0.52,113.23    C579.38,272.93,605.74,246.99,605.74,216.3z"/>
		<path class="st19" d="M635.91,758.12c0,0,8.57,47.64,9.98,58.43c1.41,10.79,8.44,17.99,23.46,17.99    c15.01,0,20.64-14.71,18.76-25.97c-1.88-11.26-8.75-58.44-8.75-58.44s-6.26-8.64-22.68-6.76S635.91,758.12,635.91,758.12z"/>
		<g>
			<path class="st17" d="M681.11,768.24c-1.79,0-3.57-0.77-4.8-2.26c-2.68-3.23-13.21-2.43-16.44-0.58     c-2.99,1.71-6.79,0.67-8.5-2.31c-1.71-2.99-0.68-6.79,2.31-8.5c5.96-3.41,24.11-6.35,32.23,3.45c2.19,2.65,1.82,6.58-0.83,8.77     C683.91,767.77,682.5,768.24,681.11,768.24z"/>
		</g>
		<g>
			<path class="st17" d="M657.14,783.53c-1.59,0-3.18-0.6-4.4-1.82c-2.44-2.43-2.45-6.37-0.02-8.81c6.82-6.85,26.14-8.28,32.3-2.39     c2.49,2.38,2.58,6.32,0.21,8.81c-2.28,2.38-5.99,2.57-8.49,0.49c-3.4-1.54-13.26-0.06-15.19,1.88     C660.34,782.91,658.74,783.53,657.14,783.53z M676.89,779.88L676.89,779.88L676.89,779.88z M676.43,779.52     C676.43,779.52,676.43,779.53,676.43,779.52C676.43,779.53,676.43,779.52,676.43,779.52z"/>
		</g>
		<path class="st19" d="M706.64,775.15c-8.81-2.45-22.7-2.82-33.47,4.58c-10.77,7.4-21.59,21.29-26.34,41.15l36.87-11.47    L706.64,775.15z"/>
		<path class="st4" d="M654.99,834.92c-3.21-4.15-5.63-5.61-7.42-12.77c0,0,19.17-53.36,59.07-46.99c9.3,2.2,6.24,16.1,3.8,22.86    L654.99,834.92z"/>
		<path class="st30" d="M664.52,837.93c20.37,0,39.7-27.98,44.75-37.38s5.7-15.68-1.6-18.95c-10.45-4.69-25.39-0.96-42.28,20.12    S648,837.93,664.52,837.93z"/>
		<g>
			<path class="st17" d="M407.83,677.74c-9.45,0-20.5-8.11-21.89-21.22c-0.36-3.42,2.12-6.49,5.54-6.85     c3.42-0.36,6.49,2.12,6.85,5.54c0.71,6.71,6.47,10.07,9.5,10.07c3.44,0,6.23,2.79,6.23,6.23     C414.06,674.96,411.28,677.74,407.83,677.74z"/>
		</g>
		<g>
			<path class="st17" d="M390.57,686.19c-0.79,0-1.59-0.15-2.37-0.47c-11.72-4.83-15.44-13.59-16.49-20.08     c-0.55-3.4,1.76-6.6,5.15-7.15c3.39-0.56,6.6,1.76,7.15,5.15c0.82,5.03,3.66,8.38,8.94,10.56c3.18,1.31,4.7,4.95,3.39,8.13     C395.35,684.74,393.02,686.19,390.57,686.19z"/>
		</g>
		<g>
			<g>
				<path class="st19" d="M612.44,385.44c-0.18,0-0.35,0-0.53-0.01c-83.27-3.04-123.64-41.95-125.31-43.6      c-5.63-5.56-5.7-14.63-0.14-20.26c5.54-5.62,14.57-5.69,20.21-0.19c0.63,0.6,35.2,32.83,106.29,35.42      c7.91,0.29,14.09,6.93,13.8,14.84C626.47,379.36,620.11,385.44,612.44,385.44z"/>
			</g>
			<g>
				<path class="st4" d="M627.22,395.51c-0.06,0-0.13,0-0.19,0c-6.88-0.11-12.37-5.77-12.27-12.65l0.38-24.69      c0.1-6.82,5.66-12.27,12.46-12.27c0.06,0,0.13,0,0.19,0c6.88,0.11,12.37,5.77,12.27,12.65l-0.38,24.69      C639.57,390.06,634.02,395.51,627.22,395.51z"/>
			</g>
			<path class="st17" d="M632.65,362.27l10.93-17.75c0.96-1.56,2.76-2.41,4.57-2.16l0,0c2.86,0.39,4.66,3.27,3.78,6.01l-1.89,5.84     l15.64-0.92c7.17-0.42,13.53,4.55,14.87,11.6v0c1.42,7.49-3.29,14.77-10.7,16.54l-11.55,2.77c-4.1,0.98-8.34,1.19-12.52,0.62     l-13.49-1.85L632.65,362.27z"/>
		</g>
		<circle class="st4" cx="472.62" cy="220.14" r="18.41"/>
		<path class="st19" d="M468.41,147.8c0-2.95-2.4-5.35-5.35-5.35s-5.35,2.4-5.35,5.35c0,2.29,1.45,4.23,3.48,5v62.24    c0,1.03,0.84,1.87,1.87,1.87s1.87-0.84,1.87-1.87V152.8C466.95,152.04,468.41,150.09,468.41,147.8z"/>
	</g>
	<line class="st31" x1="683.01" y1="786.42" x2="712.14" y2="789.34"/>
	<line class="st31" x1="671.5" y1="796.46" x2="708.2" y2="800.13"/>
	<line class="st31" x1="662.87" y1="807.1" x2="701.45" y2="810.96"/>
	<line class="st31" x1="655.97" y1="818.54" x2="691.9" y2="822.14"/>
	<line class="st31" x1="653.53" y1="830.13" x2="689.47" y2="833.73"/>
</g>
</svg>